<?xml version="1.0" encoding="UTF-8" standalone="no"?>
<svg
   xmlns:dc="http://purl.org/dc/elements/1.1/"
   xmlns:cc="http://creativecommons.org/ns#"
   xmlns:rdf="http://www.w3.org/1999/02/22-rdf-syntax-ns#"
   xmlns:svg="http://www.w3.org/2000/svg"
   xmlns="http://www.w3.org/2000/svg"
   xmlns:sodipodi="http://sodipodi.sourceforge.net/DTD/sodipodi-0.dtd"
   xmlns:inkscape="http://www.inkscape.org/namespaces/inkscape"
   width="700"
   height="700"
   viewBox="0 0 700 700"
   version="1.1"
   id="svg363"
   sodipodi:docname="unit-circle-chart-degrees.svg"
   inkscape:version="0.92.4 (5da689c313, 2019-01-14)">
  <metadata
     id="metadata367">
    <rdf:RDF>
      <cc:Work
         rdf:about="">
        <dc:format>image/svg+xml</dc:format>
        <dc:type
           rdf:resource="http://purl.org/dc/dcmitype/StillImage" />
        <dc:title></dc:title>
      </cc:Work>
    </rdf:RDF>
  </metadata>
  <sodipodi:namedview
     pagecolor="#ffffff"
     bordercolor="#666666"
     borderopacity="1"
     objecttolerance="10"
     gridtolerance="10"
     guidetolerance="10"
     inkscape:pageopacity="0"
     inkscape:pageshadow="2"
     inkscape:window-width="1920"
     inkscape:window-height="1001"
     id="namedview365"
     showgrid="false"
     inkscape:zoom="1.3485714"
     inkscape:cx="350"
     inkscape:cy="527.9661"
     inkscape:window-x="-9"
     inkscape:window-y="-9"
     inkscape:window-maximized="1"
     inkscape:current-layer="base" />
  <defs
     id="defs4">
    <style
       id="style2">
      .cls-1 {
        fill: #fff;
      }

      .cls-2 {
        fill: none;
        stroke: #404040;
        stroke-miterlimit: 10;
      }

      .cls-3 {
        fill: #404040;
      }
    </style>
  </defs>
  <g
     id="base">
    <rect
       class="cls-1"
       width="700"
       height="700"
       id="rect6" />
    <g
       id="g14">
      <line
         class="cls-2"
         x1="350"
         y1="56.0352"
         x2="350"
         y2="643.9649"
         id="line8" />
      <path
         class="cls-3"
         d="M350,50a30.2247,30.2247,0,0,1-4.7559,8.5474L350,56.8271l4.7548,1.72A30.1949,30.1949,0,0,1,350,50Z"
         id="path10" />
      <path
         class="cls-3"
         d="M350,650a30.2228,30.2228,0,0,0-4.7559-8.5473l4.7559,1.72,4.7548-1.72A30.193,30.193,0,0,0,350,650Z"
         id="path12" />
    </g>
    <g
       id="g22">
      <line
         class="cls-2"
         x1="643.9649"
         y1="350"
         x2="56.0351"
         y2="350"
         id="line16" />
      <path
         class="cls-3"
         d="M650,350a30.2184,30.2184,0,0,1-8.5474-4.7559l1.72,4.7559-1.72,4.7549A30.1938,30.1938,0,0,1,650,350Z"
         id="path18" />
      <path
         class="cls-3"
         d="M50,350a30.2192,30.2192,0,0,0,8.5473-4.7559L56.8271,350l1.72,4.7549A30.1946,30.1946,0,0,0,50,350Z"
         id="path20" />
    </g>
    <circle
       class="cls-2"
       cx="350"
       cy="350"
       r="250"
       id="circle24" />
  </g>
  <g
     id="divide_by_8_lines"
     data-name="divide by 8 lines">
    <line
       class="cls-2"
       x1="350"
       y1="350"
       x2="526.7767"
       y2="173.2233"
       id="line27" />
    <line
       class="cls-2"
       x1="173.2233"
       y1="526.7767"
       x2="350"
       y2="350"
       id="line29" />
    <line
       class="cls-2"
       x1="350"
       y1="350"
       x2="526.7767"
       y2="526.7767"
       id="line31" />
    <line
       class="cls-2"
       x1="173.2233"
       y1="173.2233"
       x2="350"
       y2="350"
       id="line33" />
  </g>
  <g
     id="Layer_8"
     data-name="Layer 8">
    <path
       class="cls-1"
       d="M350,112.5c-131.1677,0-237.5,106.3323-237.5,237.5S218.8323,587.5,350,587.5,587.5,481.1676,587.5,350,481.1677,112.5,350,112.5Zm0,425c-103.5534,0-187.5-83.9466-187.5-187.5S246.4466,162.5,350,162.5,537.5,246.4466,537.5,350,453.5534,537.5,350,537.5Z"
       id="path36" />
    <rect
       class="cls-1"
       x="277"
       y="337.5"
       width="50"
       height="25"
       id="rect38" />
  </g>
  <g
     id="divided_by_4"
     data-name="divided by 4">
    <circle
       class="cls-3"
       cx="350"
       cy="350"
       r="3"
       id="circle41" />
    <circle
       class="cls-3"
       cx="600"
       cy="350"
       r="3"
       id="circle43" />
    <circle
       class="cls-3"
       cx="350"
       cy="600"
       r="3"
       id="circle45" />
    <circle
       class="cls-3"
       cx="100"
       cy="350"
       r="3"
       id="circle47" />
    <circle
       class="cls-3"
       cx="350"
       cy="100"
       r="3"
       id="circle49" />
    <g
       id="g77" />
    <g
       id="g113">
      <path
         class="cls-3"
         d="M343.2254,141.9127a1.1409,1.1409,0,0,1-.209.7.8526.8526,0,0,1-.5507.34l-.08.02q0,.02.1406.11a.8049.8049,0,0,0,.2207.11,2.8428,2.8428,0,0,0,1.1387.2,2.19,2.19,0,0,0,.5195-.04,2.7373,2.7373,0,0,0,1.6211-1.24,7.1052,7.1052,0,0,0,.7793-3.88v-.14l-.1.16a2.556,2.556,0,0,1-2.3008,1.36,3.3879,3.3879,0,0,1-2.7187-1.38,4.3326,4.3326,0,0,1-1.08-3.12,4.9576,4.9576,0,0,1,.3105-1.9,4.7854,4.7854,0,0,1,1.0684-1.5,3.9588,3.9588,0,0,1,2.4805-1.18l.06-.02h.1c.0274,0,.07.0034.1309.01a1.3207,1.3207,0,0,0,.1484.01,2.7652,2.7652,0,0,1,.58.04,3.7891,3.7891,0,0,1,2.541,2.06,10.2451,10.2451,0,0,1,.8594,4.52,8.8536,8.8536,0,0,1-1.1992,4.74,5.4745,5.4745,0,0,1-1.69,1.75,3.8042,3.8042,0,0,1-2.07.63,3.2556,3.2556,0,0,1-2.0313-.59,2.0223,2.0223,0,0,1-.7695-1.71q0-1.12,1.0606-1.12a.98.98,0,0,1,1.039,1.06Zm2.0215-10.54a3.0672,3.0672,0,0,0-.56-.04,1.7748,1.7748,0,0,0-1.3008.54,2.1347,2.1347,0,0,0-.5489,1.05,11.3383,11.3383,0,0,0-.1308,2.09,18.3585,18.3585,0,0,0,.1,2.16,2.0079,2.0079,0,0,0,.59,1.23,1.7355,1.7355,0,0,0,1.25.47h.08a1.8371,1.8371,0,0,0,1.57-1.13,5.8183,5.8183,0,0,0,.49-2.51,10.89,10.89,0,0,0-.16-2.24,2.1477,2.1477,0,0,0-.49-1.04A1.6783,1.6783,0,0,0,345.2469,131.3726Z"
         id="path107" />
      <path
         class="cls-3"
         d="M351.6864,132.1324a3.5273,3.5273,0,0,1,3.06-1.62,3.6844,3.6844,0,0,1,2.5586,1,4.3033,4.3033,0,0,1,.92,1.36,11.4267,11.4267,0,0,1,.74,4.56,10.4534,10.4534,0,0,1-.8594,4.74,3.4626,3.4626,0,0,1-1.6406,1.68,3.7709,3.7709,0,0,1-1.6993.42,3.5261,3.5261,0,0,1-3.3613-2.1,10.452,10.452,0,0,1-.8594-4.74,15.6429,15.6429,0,0,1,.25-3.07A6.6852,6.6852,0,0,1,351.6864,132.1324Zm4.5-.24a1.8454,1.8454,0,0,0-1.42-.64,1.9072,1.9072,0,0,0-1.4414.64,2.4172,2.4172,0,0,0-.6,1.12,12.3586,12.3586,0,0,0-.1992,2.28c0,.08-.0039.34-.01.78-.0078.44-.01.8067-.01,1.1q0,1.92.039,2.68a11.2759,11.2759,0,0,0,.24,2.01,2.2793,2.2793,0,0,0,.6,1.05,1.777,1.777,0,0,0,1.3808.6,1.75,1.75,0,0,0,1.3594-.6,2.2628,2.2628,0,0,0,.6-1.05,11.2854,11.2854,0,0,0,.24-2.01q.0409-.7594.041-2.68c0-.2929-.0039-.66-.01-1.1q-.0117-.6606-.0117-.78a12.19,12.19,0,0,0-.1992-2.28A2.4181,2.4181,0,0,0,356.1864,131.8927Z"
         id="path109" />
      <path
         class="cls-3"
         d="M362.7254,130.8927a1.7967,1.7967,0,0,1,.68-.97,2.3434,2.3434,0,0,1,3.2813.71,1.4727,1.4727,0,0,1,.1191.62,1.5247,1.5247,0,0,1-.1191.64,1.9475,1.9475,0,0,1-1.94,1.1,2.2318,2.2318,0,0,1-1.32-.38,1.71,1.71,0,0,1-.7012-.98,1.9127,1.9127,0,0,1-.0195-.36A2.0918,2.0918,0,0,1,362.7254,130.8927Zm2.041,1.36a1.8287,1.8287,0,0,0,1-.19.945.945,0,0,0,.26-.79q0-.8194-.6211-.98a4.5664,4.5664,0,0,0-.58-.02c-.0664,0-.1426-.0029-.2285-.01-.0879-.0069-.1367-.01-.15-.01a.9648.9648,0,0,0-.7207.23,1.097,1.097,0,0,0-.2187.77,1.05,1.05,0,0,0,.2187.78A1.663,1.663,0,0,0,364.7664,132.2525Z"
         id="path111" />
    </g>
    <g
       id="g123">
      <path
         class="cls-3"
         d="M130.5379,355.6129q-.3413-.06-3.1806-.0606-2.7994,0-3.14.0606h-.24v-.92h.52a11.253,11.253,0,0,0,1.5-.06,1.2707,1.2707,0,0,0,.48-.24v-10.34a.49.49,0,0,0-.16.0606,5.9033,5.9033,0,0,1-2.06.38h-.38v-.92h.38a5.5782,5.5782,0,0,0,2.8-.76,2.8118,2.8118,0,0,0,.62-.46c.0263-.04.1064-.06.24-.06a.5053.5053,0,0,1,.34.12v5.98l.02,6a1.9368,1.9368,0,0,0,1.3008.3007h1.18v.92Z"
         id="path115" />
      <path
         class="cls-3"
         d="M135.658,348.9127a5.9331,5.9331,0,0,1-1.5107-1.34,3.4388,3.4388,0,0,1-.21-3.28,3.5666,3.5666,0,0,1,1.29-1.45,3.5133,3.5133,0,0,1,1.95-.55,3.9781,3.9781,0,0,1,2.36.71,2.9512,2.9512,0,0,1,1.2393,1.83,3.5472,3.5472,0,0,1,.02.4805,2.9481,2.9481,0,0,1-.04.6,3.7391,3.7391,0,0,1-1.82,2.28l-.2392.16q1.1191.76,1.1592.8a3.6743,3.6743,0,0,1,1.5,2.98,3.7148,3.7148,0,0,1-1.19,2.77,4.1048,4.1048,0,0,1-2.97,1.1494,3.9958,3.9958,0,0,1-3.62-1.8,2.9678,2.9678,0,0,1-.5-1.74Q133.078,350.3326,135.658,348.9127Zm-1.3007,3.56a2.5031,2.5031,0,0,0,.86,1.95,2.9046,2.9046,0,0,0,2,.7705,3.2473,3.2473,0,0,0,1.49-.34,2.4821,2.4821,0,0,0,1.01-.8809,1.9734,1.9734,0,0,0,.34-1.1,2.0325,2.0325,0,0,0-.7-1.5195q-.16-.1611-1.6592-1.1406-.2812-.18-.61-.39c-.22-.1406-.39-.25-.51-.33l-.16-.1006-.24.12a3.8935,3.8935,0,0,0-1.66,2A3.2981,3.2981,0,0,0,134.3573,352.4722Zm5.28-7.1191a2.0656,2.0656,0,0,0-.5595-1.4609,2.4963,2.4963,0,0,0-1.36-.76q-.1406-.019-.66-.0195a2.42,2.42,0,0,0-1.78.72,1.4456,1.4456,0,0,0-.5,1.1,1.5707,1.5707,0,0,0,.7207,1.36q.1.101,1.2793.84l1.16.76q.0206-.019.2608-.17a2.08,2.08,0,0,0,.3593-.2695A2.598,2.598,0,0,0,139.6375,345.3531Z"
         id="path117" />
      <path
         class="cls-3"
         d="M144.1375,343.9127a3.5292,3.5292,0,0,1,3.0606-1.62,3.69,3.69,0,0,1,2.5595,1,4.3324,4.3324,0,0,1,.92,1.36,11.4438,11.4438,0,0,1,.74,4.56,10.4382,10.4382,0,0,1-.86,4.74,3.4634,3.4634,0,0,1-1.64,1.68,3.7649,3.7649,0,0,1-1.7.42,3.5243,3.5243,0,0,1-3.36-2.1,10.44,10.44,0,0,1-.8594-4.74,15.5688,15.5688,0,0,1,.25-3.07A6.7037,6.7037,0,0,1,144.1375,343.9127Zm4.5-.24a1.8433,1.8433,0,0,0-1.42-.64,1.9063,1.9063,0,0,0-1.44.64,2.4106,2.4106,0,0,0-.6,1.12,12.337,12.337,0,0,0-.2,2.28q0,.12-.01.78t-.01,1.1q0,1.92.04,2.68a11.3976,11.3976,0,0,0,.2392,2.01,2.2749,2.2749,0,0,0,.6006,1.0507,1.7761,1.7761,0,0,0,1.38.6,1.7541,1.7541,0,0,0,1.36-.6,2.2731,2.2731,0,0,0,.6-1.0507,11.4719,11.4719,0,0,0,.24-2.01q.04-.7588.04-2.68c0-.293-.0039-.66-.01-1.1-.0078-.44-.0108-.7-.0108-.78a12.2477,12.2477,0,0,0-.2-2.28A2.4106,2.4106,0,0,0,148.6375,343.6724Z"
         id="path119" />
      <path
         class="cls-3"
         d="M155.1776,342.6724a1.7835,1.7835,0,0,1,.68-.97,2.01,2.01,0,0,1,1.24-.39,2.032,2.032,0,0,1,2.04,1.1,1.4692,1.4692,0,0,1,.12.62,1.5193,1.5193,0,0,1-.12.64,1.946,1.946,0,0,1-1.9394,1.1006,2.23,2.23,0,0,1-1.32-.3808,1.7073,1.7073,0,0,1-.7-.98,1.9132,1.9132,0,0,1-.02-.36A2.0979,2.0979,0,0,1,155.1776,342.6724Zm2.04,1.36a1.8255,1.8255,0,0,0,1-.19.9405.9405,0,0,0,.26-.79q0-.8189-.62-.98a4.452,4.452,0,0,0-.58-.02c-.0664,0-.1426-.0029-.23-.01s-.1367-.01-.15-.01a.9652.9652,0,0,0-.72.2295,1.0972,1.0972,0,0,0-.22.7705,1.05,1.05,0,0,0,.22.78A1.66,1.66,0,0,0,157.2176,344.0328Z"
         id="path121" />
    </g>
    <g
       id="g135">
      <path
         class="cls-3"
         d="M287.8074,360.4322c0,.12-.121.1807-.3613.1807h-.26c-.0938-.08-.2793-.24-.5586-.4805q-3.6006-3.28-3.6016-9.5195a16.1241,16.1241,0,0,1,.58-4.46,10.7862,10.7862,0,0,1,3.0215-5.06c.0918-.08.1992-.17.3183-.27.1211-.1006.2012-.17.24-.21h.26a.48.48,0,0,1,.3008.0595.1778.1778,0,0,1,.06.12c0,.0537-.0742.1533-.2207.3q-3.1,3.2813-3.1,9.5205t3.1,9.5195C287.7332,360.2789,287.8074,360.38,287.8074,360.4322Z"
         id="path125" />
      <path
         class="cls-3"
         d="M290.8465,343.9127a3.5316,3.5316,0,0,1,3.0606-1.62,3.6945,3.6945,0,0,1,2.56,1,4.3643,4.3643,0,0,1,.92,1.36,11.46,11.46,0,0,1,.74,4.56,10.4232,10.4232,0,0,1-.8614,4.74,3.4658,3.4658,0,0,1-1.6386,1.68,3.7661,3.7661,0,0,1-1.7012.42,3.523,3.523,0,0,1-3.3594-2.1,10.4276,10.4276,0,0,1-.8594-4.74,15.5,15.5,0,0,1,.25-3.07A6.7233,6.7233,0,0,1,290.8465,343.9127Zm4.5-.24a1.842,1.842,0,0,0-1.42-.64,1.9059,1.9059,0,0,0-1.44.64,2.4034,2.4034,0,0,0-.6,1.12,12.3247,12.3247,0,0,0-.2011,2.28c0,.08-.002.34-.01.78-.0059.44-.01.8066-.01,1.1q0,1.92.041,2.68a11.5272,11.5272,0,0,0,.2383,2.01,2.2671,2.2671,0,0,0,.6016,1.0507,1.8649,1.8649,0,0,0,2.74,0,2.28,2.28,0,0,0,.6-1.0507,11.66,11.66,0,0,0,.24-2.01q.0381-.7588.039-2.68c0-.293-.0039-.66-.01-1.1-.0079-.44-.01-.7-.01-.78a12.3313,12.3313,0,0,0-.2012-2.28A2.4016,2.4016,0,0,0,295.3465,343.6724Z"
         id="path127" />
      <path
         class="cls-3"
         d="M300.8465,355.2623a1.1381,1.1381,0,0,1-.3594-.85,1.228,1.228,0,0,1,.33-.86,1.1046,1.1046,0,0,1,.85-.3594,1.1744,1.1744,0,0,1,1.1094.64,3.3387,3.3387,0,0,1,.3516,1.62,5.53,5.53,0,0,1-.0411.7,5.737,5.737,0,0,1-1.4589,3.06c-.1875.1865-.3067.28-.3614.28-.0527,0-.1386-.0606-.26-.18-.1192-.12-.18-.2071-.18-.2608,0-.0664.0664-.167.1992-.3a4.6833,4.6833,0,0,0,1.3613-3.08v-.24a.4376.4376,0,0,0-.1211.0606,1.2691,1.2691,0,0,1-.539.12A1.2157,1.2157,0,0,1,300.8465,355.2623Z"
         id="path129" />
      <path
         class="cls-3"
         d="M306.4071,343.9127a3.5268,3.5268,0,0,1,3.06-1.62,3.6862,3.6862,0,0,1,2.5586,1,4.299,4.299,0,0,1,.92,1.36,11.424,11.424,0,0,1,.74,4.56,10.4546,10.4546,0,0,1-.8594,4.74,3.4615,3.4615,0,0,1-1.6406,1.68,3.7644,3.7644,0,0,1-1.6993.42,3.5256,3.5256,0,0,1-3.3613-2.1,10.4532,10.4532,0,0,1-.8594-4.74,15.6458,15.6458,0,0,1,.25-3.07A6.6826,6.6826,0,0,1,306.4071,343.9127Zm4.5-.24a1.8451,1.8451,0,0,0-1.42-.64,1.907,1.907,0,0,0-1.4414.64,2.4205,2.4205,0,0,0-.6,1.12,12.3788,12.3788,0,0,0-.1992,2.28c0,.08-.0039.34-.01.78-.0078.44-.01.8066-.01,1.1q0,1.92.039,2.68a11.2759,11.2759,0,0,0,.24,2.01,2.28,2.28,0,0,0,.6,1.0507,1.7779,1.7779,0,0,0,1.3808.6,1.7506,1.7506,0,0,0,1.3594-.6,2.2627,2.2627,0,0,0,.6-1.0507,11.2854,11.2854,0,0,0,.24-2.01q.041-.7588.041-2.68c0-.293-.0039-.66-.01-1.1q-.0117-.6606-.0117-.78a12.2,12.2,0,0,0-.1992-2.28A2.4214,2.4214,0,0,0,310.9071,343.6724Z"
         id="path131" />
      <path
         class="cls-3"
         d="M315.6864,340.6324l.08-.0195h.44c.0937.08.2812.24.56.4795q3.6006,3.2813,3.6,9.5205a15.7721,15.7721,0,0,1-.58,4.4394,10.7811,10.7811,0,0,1-3.02,5.08c-.0937.08-.1992.17-.32.27-.1191.1-.1992.17-.24.21h-.2383a.7566.7566,0,0,1-.31-.04c-.0469-.0273-.07-.0937-.07-.2.0137-.0136.086-.1.2207-.26q3.1-3.2213,3.1-9.5t-3.1-9.5c-.1347-.16-.207-.2471-.2207-.26A.2357.2357,0,0,1,315.6864,340.6324Z"
         id="path133" />
    </g>
    <g
       id="g145">
      <path
         class="cls-3"
         d="M337.077,559.9762a1.1147,1.1147,0,0,1-.88-.36,1.275,1.275,0,0,1-.32-.88,3.279,3.279,0,0,1,1.09-2.47,3.6682,3.6682,0,0,1,2.61-1.03,4.3393,4.3393,0,0,1,2.85.93,3.91,3.91,0,0,1,1.3906,2.4307,6.0692,6.0692,0,0,1,.04.66,3.7877,3.7877,0,0,1-.7,2.18,13.2865,13.2865,0,0,1-2.2608,2.3q-.7192.62-2,1.84l-1.18,1.12,1.52.02a23.8125,23.8125,0,0,0,3.34-.1006c.0527-.0127.12-.1533.2-.42a12.6841,12.6841,0,0,0,.2793-1.36v-.06h.8008v.06l-.5606,3.66v.06h-7.42v-.38a1.3285,1.3285,0,0,1,.04-.46q.019-.0205,1.68-1.9,2.18-2.42,2.8-3.2a5.7964,5.7964,0,0,0,1.3408-3.34,3.5,3.5,0,0,0-.69-2.21,2.304,2.304,0,0,0-1.93-.89,2.1933,2.1933,0,0,0-1.88,1.04c-.0273.0527-.0673.1269-.12.22a.44.44,0,0,0-.06.12c0,.0137.0332.02.1006.02a1.0174,1.0174,0,0,1,.81.36,1.2454,1.2454,0,0,1,.3106.84,1.1933,1.1933,0,0,1-.33.85A1.1424,1.1424,0,0,1,337.077,559.9762Z"
         id="path137" />
      <path
         class="cls-3"
         d="M345.9764,559.3961q.0205-.04.3408-2.18l.3193-2.1406c0-.0264.1338-.04.4-.04h.3995v.08q0,.2007.3007.34a3.1384,3.1384,0,0,0,1.05.1807q.75.04,3.37.04h2.42v.7793l-1.36,1.86q-.3.42-.68.93t-.58.79c-.1338.1875-.2139.3-.24.34a9.2508,9.2508,0,0,0-1.24,4.3408q-.0791.82-.1,2.2392c0,.1875-.0039.377-.01.57s-.01.35-.01.47v.1806a1.0222,1.0222,0,0,1-.3907.58,1.0768,1.0768,0,0,1-.67.2393.97.97,0,0,1-.7695-.33,1.3284,1.3284,0,0,1-.29-.9092q0-.3.08-1.1406a13.9662,13.9662,0,0,1,1.8594-5.42q.4-.64,1.6807-2.42l.92-1.26h-1.86a23.4688,23.4688,0,0,0-3.66.12q-.0806.04-.22.4395a6.6855,6.6855,0,0,0-.2.94,2.3872,2.3872,0,0,1-.06.38v.0595h-.8008Z"
         id="path139" />
      <path
         class="cls-3"
         d="M356.7967,556.856a3.5294,3.5294,0,0,1,3.0606-1.62,3.6907,3.6907,0,0,1,2.56,1,4.3311,4.3311,0,0,1,.92,1.36,11.4409,11.4409,0,0,1,.74,4.5595,10.4387,10.4387,0,0,1-.86,4.74,3.4638,3.4638,0,0,1-1.64,1.68,3.7665,3.7665,0,0,1-1.7.42,3.5245,3.5245,0,0,1-3.36-2.1,10.4417,10.4417,0,0,1-.8593-4.74,15.57,15.57,0,0,1,.25-3.07A6.7025,6.7025,0,0,1,356.7967,556.856Zm4.5-.24a1.843,1.843,0,0,0-1.42-.64,1.9058,1.9058,0,0,0-1.44.64,2.4113,2.4113,0,0,0-.6,1.12,12.3554,12.3554,0,0,0-.2,2.28q0,.12-.01.78c-.0069.4394-.01.8066-.01,1.1q0,1.92.04,2.68a11.3948,11.3948,0,0,0,.2392,2.01,2.2743,2.2743,0,0,0,.6006,1.0508,1.7763,1.7763,0,0,0,1.38.6,1.754,1.754,0,0,0,1.36-.6,2.2717,2.2717,0,0,0,.6-1.0508,11.4569,11.4569,0,0,0,.24-2.01q.0394-.7589.04-2.68c0-.293-.0039-.66-.01-1.1-.0079-.4405-.0108-.7-.0108-.78a12.2658,12.2658,0,0,0-.2-2.28A2.41,2.41,0,0,0,361.2967,556.6158Z"
         id="path141" />
      <path
         class="cls-3"
         d="M367.8367,555.6158a1.7842,1.7842,0,0,1,.68-.97,2.011,2.011,0,0,1,1.24-.39,2.0321,2.0321,0,0,1,2.04,1.1,1.47,1.47,0,0,1,.12.62,1.52,1.52,0,0,1-.12.64,1.9461,1.9461,0,0,1-1.9394,1.1006,2.2307,2.2307,0,0,1-1.32-.3809,1.7078,1.7078,0,0,1-.7-.98,1.9235,1.9235,0,0,1-.0195-.36A2.1107,2.1107,0,0,1,367.8367,555.6158Zm2.04,1.36a1.8246,1.8246,0,0,0,1-.19.9406.9406,0,0,0,.26-.79q0-.8189-.62-.98a4.4293,4.4293,0,0,0-.58-.02c-.0665,0-.1426-.0029-.2295-.01s-.1368-.01-.15-.01a.966.966,0,0,0-.72.2294,1.0981,1.0981,0,0,0-.22.7706,1.05,1.05,0,0,0,.22.78A1.66,1.66,0,0,0,369.8768,556.9762Z"
         id="path143" />
    </g>
    <g
       id="g151">
      <path
         class="cls-3"
         d="M558.6219,330.86a3.5294,3.5294,0,0,1,3.0605-1.62,3.6908,3.6908,0,0,1,2.56,1,4.3311,4.3311,0,0,1,.92,1.36,11.4409,11.4409,0,0,1,.74,4.56,10.4387,10.4387,0,0,1-.86,4.74,3.4638,3.4638,0,0,1-1.64,1.68,3.7665,3.7665,0,0,1-1.7.42,3.5245,3.5245,0,0,1-3.36-2.1,10.4417,10.4417,0,0,1-.8593-4.74,15.57,15.57,0,0,1,.25-3.07A6.7025,6.7025,0,0,1,558.6219,330.86Zm4.5-.24a1.8431,1.8431,0,0,0-1.42-.64,1.9061,1.9061,0,0,0-1.4405.64,2.412,2.412,0,0,0-.6,1.12,12.3563,12.3563,0,0,0-.2,2.28q0,.12-.01.78c-.0069.4394-.01.8066-.01,1.1q0,1.92.04,2.68a11.3948,11.3948,0,0,0,.2392,2.01,2.2743,2.2743,0,0,0,.6006,1.0508,1.7762,1.7762,0,0,0,1.38.6,1.754,1.754,0,0,0,1.36-.6,2.2717,2.2717,0,0,0,.6-1.0508,11.4569,11.4569,0,0,0,.24-2.01q.0394-.7588.04-2.68c0-.293-.0039-.66-.01-1.1-.0078-.4405-.0107-.7-.0107-.78a12.2668,12.2668,0,0,0-.2-2.28A2.41,2.41,0,0,0,563.1219,330.62Z"
         id="path147" />
      <path
         class="cls-3"
         d="M569.6619,329.62a1.7837,1.7837,0,0,1,.68-.97,2.011,2.011,0,0,1,1.24-.39,2.0321,2.0321,0,0,1,2.04,1.1,1.47,1.47,0,0,1,.12.62,1.5193,1.5193,0,0,1-.12.64,1.9461,1.9461,0,0,1-1.9395,1.1006,2.2306,2.2306,0,0,1-1.32-.3809,1.7078,1.7078,0,0,1-.7-.98,1.9235,1.9235,0,0,1-.0195-.36A2.1107,2.1107,0,0,1,569.6619,329.62Zm2.04,1.36a1.8246,1.8246,0,0,0,1-.19.94.94,0,0,0,.26-.79q0-.8188-.62-.9795a4.43,4.43,0,0,0-.58-.0205c-.0664,0-.1425-.0029-.2294-.01s-.1368-.01-.15-.01a.966.966,0,0,0-.72.2294,1.0981,1.0981,0,0,0-.22.7706,1.05,1.05,0,0,0,.22.78A1.66,1.66,0,0,0,571.702,330.98Z"
         id="path149" />
    </g>
    <g
       id="g161">
      <path
         class="cls-3"
         d="M549.8153,358.57a1.0907,1.0907,0,0,1-.85-.34,1.2546,1.2546,0,0,1-.3106-.88,2.4131,2.4131,0,0,1,.9-1.91,3.8223,3.8223,0,0,1,2.08-.91h.3q.7,0,.88.0205a4.82,4.82,0,0,1,1.34.42,2.9767,2.9767,0,0,1,1.66,1.88,1.9469,1.9469,0,0,1,.06.54,3.3274,3.3274,0,0,1-.73,2.1094,4.0423,4.0423,0,0,1-1.83,1.33c-.0674.0273-.0674.0468,0,.06a1.3263,1.3263,0,0,0,.2.06,4.26,4.26,0,0,1,2.06,1.2705,3.0576,3.0576,0,0,1,.84,2.1094,3.4962,3.4962,0,0,1-.38,1.58,3.9657,3.9657,0,0,1-1.5693,1.69,4.5556,4.5556,0,0,1-2.4307.67,4.7845,4.7845,0,0,1-2.34-.5606,2.8838,2.8838,0,0,1-1.38-1.5,2.2455,2.2455,0,0,1-.2-.9794,1.1951,1.1951,0,0,1,.37-.91,1.3319,1.3319,0,0,1,1.81.01,1.2212,1.2212,0,0,1,.36.9,1.2812,1.2812,0,0,1-.26.8,1.188,1.188,0,0,1-.7.44l-.14.04a3.7621,3.7621,0,0,0,2.4795.8994,1.7837,1.7837,0,0,0,1.66-1.06,4.5985,4.5985,0,0,0,.34-2.02V363.93a2.5621,2.5621,0,0,0-1.2793-2.54,4.2,4.2,0,0,0-1.2207-.1406l-.84-.0195-.06-.04a.731.731,0,0,1-.04-.32.4742.4742,0,0,1,.06-.3.162.162,0,0,1,.1006-.06,6.9665,6.9665,0,0,0,1.1592-.1006,1.7348,1.7348,0,0,0,1.3408-.99,4.4287,4.4287,0,0,0,.46-2.09,1.903,1.903,0,0,0-.7-1.74,1.66,1.66,0,0,0-.94-.2793,2.9569,2.9569,0,0,0-1.76.54.7982.7982,0,0,0-.18.13,1.1867,1.1867,0,0,0-.16.17l-.0605.08c.04.0136.0869.0263.1406.04a.953.953,0,0,1,.67.38,1.22,1.22,0,0,1,.2695.78,1.098,1.098,0,0,1-.33.81A1.1506,1.1506,0,0,1,549.8153,358.57Z"
         id="path153" />
      <path
         class="cls-3"
         d="M564.7352,355.81a1.89,1.89,0,0,0-1.24-.5,2.8623,2.8623,0,0,0-2.34,1.2,6.9431,6.9431,0,0,0-.9394,4.04l.0195.0791.16-.26a2.5579,2.5579,0,0,1,2.22-1.2,3.3376,3.3376,0,0,1,1.62.3809,4.1239,4.1239,0,0,1,.96.8095,5.03,5.03,0,0,1,.78,1.13,5.3717,5.3717,0,0,1,.42,2.14v.36a3.5092,3.5092,0,0,1-.1005.86,4.4986,4.4986,0,0,1-1.2393,2.22,3.68,3.68,0,0,1-1.92,1.12,3.402,3.402,0,0,1-.8008.08,3.477,3.477,0,0,1-.68-.0606,3.5445,3.5445,0,0,1-2.36-1.6,9.34,9.34,0,0,1-1.18-5.04,8.8133,8.8133,0,0,1,.76-3.78,5.99,5.99,0,0,1,2.12-2.5195,3.9853,3.9853,0,0,1,2.34-.76,2.74,2.74,0,0,1,1.87.6192,2.14,2.14,0,0,1,.71,1.7,1.0992,1.0992,0,0,1-.29.8,1.02,1.02,0,0,1-.7695.3008,1.0634,1.0634,0,0,1-.7705-.28,1.0327,1.0327,0,0,1-.29-.78A.9892.9892,0,0,1,564.7352,355.81Zm-.88,4.8a1.7434,1.7434,0,0,0-1.44-.72,1.62,1.62,0,0,0-1.1992.46,4.33,4.33,0,0,0-.9805,3.16,8.4626,8.4626,0,0,0,.24,2.46,2.2952,2.2952,0,0,0,.68,1.0195,1.6733,1.6733,0,0,0,1.14.42,1.7957,1.7957,0,0,0,1.5605-.76,2.2134,2.2134,0,0,0,.38-1,13.3235,13.3235,0,0,0,.08-1.68V363.33a13.7624,13.7624,0,0,0-.08-1.72A2.2134,2.2134,0,0,0,563.8553,360.61Z"
         id="path155" />
      <path
         class="cls-3"
         d="M569.1951,356.13a3.5306,3.5306,0,0,1,3.0606-1.6192,3.6865,3.6865,0,0,1,2.56,1,4.3392,4.3392,0,0,1,.92,1.3594,11.4488,11.4488,0,0,1,.74,4.5606,10.4379,10.4379,0,0,1-.86,4.7392,3.4666,3.4666,0,0,1-1.64,1.6807,3.7776,3.7776,0,0,1-1.7.42,3.5251,3.5251,0,0,1-3.36-2.1006,10.4379,10.4379,0,0,1-.8594-4.7392,15.5636,15.5636,0,0,1,.25-3.07A6.7084,6.7084,0,0,1,569.1951,356.13Zm4.5-.2393a1.8443,1.8443,0,0,0-1.42-.6406,1.9074,1.9074,0,0,0-1.44.6406,2.4059,2.4059,0,0,0-.6,1.12,12.3243,12.3243,0,0,0-.2,2.2793q0,.12-.01.78t-.01,1.1q0,1.92.04,2.6807a11.3828,11.3828,0,0,0,.2393,2.01,2.27,2.27,0,0,0,.6005,1.05,1.774,1.774,0,0,0,1.38.6006,1.752,1.752,0,0,0,1.36-.6006,2.27,2.27,0,0,0,.6-1.05,11.4691,11.4691,0,0,0,.24-2.01q.04-.76.04-2.6807c0-.293-.004-.6592-.01-1.1-.0078-.44-.0108-.7-.0108-.78a12.2375,12.2375,0,0,0-.2-2.2793A2.4069,2.4069,0,0,0,573.6951,355.89Z"
         id="path157" />
      <path
         class="cls-3"
         d="M580.2352,354.89a1.7894,1.7894,0,0,1,.68-.9707,2.01,2.01,0,0,1,1.24-.39,2.0333,2.0333,0,0,1,2.04,1.1,1.4721,1.4721,0,0,1,.12.62,1.524,1.524,0,0,1-.12.6406,1.9452,1.9452,0,0,1-1.9394,1.1,2.2365,2.2365,0,0,1-1.32-.38,1.7089,1.7089,0,0,1-.7-.98,1.91,1.91,0,0,1-.0195-.3594A2.0856,2.0856,0,0,1,580.2352,354.89Zm2.04,1.3594a1.8262,1.8262,0,0,0,1-.19.9428.9428,0,0,0,.26-.79q0-.82-.62-.9805a4.7294,4.7294,0,0,0-.58-.0195c-.0664,0-.1426-.0029-.2295-.01s-.1367-.0107-.15-.0107a.9614.9614,0,0,0-.72.2305,1.096,1.096,0,0,0-.22.7695,1.0488,1.0488,0,0,0,.22.78A1.66,1.66,0,0,0,582.2752,356.25Z"
         id="path159" />
    </g>
    <text
       xml:space="preserve"
       style="font-style:normal;font-variant:normal;font-weight:normal;font-stretch:normal;font-size:18.66666603px;line-height:1.25;font-family:Bahnschrift;-inkscape-font-specification:Bahnschrift;letter-spacing:0px;word-spacing:0px;fill:#4d4d4d;fill-opacity:1;stroke:none;"
       x="665.95764"
       y="356.44916"
       id="text4078"><tspan
         sodipodi:role="line"
         id="tspan4076"
         x="665.95764"
         y="356.44916">E</tspan></text>
    <text
       xml:space="preserve"
       style="font-style:normal;font-variant:normal;font-weight:normal;font-stretch:normal;font-size:18.66666603px;line-height:1.25;font-family:Bahnschrift;-inkscape-font-specification:Bahnschrift;letter-spacing:0px;word-spacing:0px;fill:#4d4d4d;fill-opacity:1;stroke:none;"
       x="344.51694"
       y="679.0127"
       id="text4098"><tspan
         sodipodi:role="line"
         id="tspan4096"
         x="344.51694"
         y="679.0127">S</tspan></text>
  </g>
  <g
     id="divide_by_8"
     data-name="divide by 8">
    <circle
       class="cls-3"
       cx="526.7767"
       cy="173.2233"
       r="3"
       id="circle164" />
    <circle
       class="cls-3"
       cx="526.7767"
       cy="526.7767"
       r="3"
       id="circle166" />
    <circle
       class="cls-3"
       cx="173.2233"
       cy="173.2233"
       r="3"
       id="circle168" />
    <circle
       class="cls-3"
       cx="173.2233"
       cy="526.7767"
       r="3"
       id="circle170" />
    <g
       id="g178">
      <path
         class="cls-3"
         d="M500.02,206.7833q-.2812-.06-2.58-.06-2.3994,0-2.68.06h-.18v-.92H495.2a4.2338,4.2338,0,0,0,1.0606-.1.3545.3545,0,0,0,.24-.2c.0137-.0264.0195-.3863.0195-1.08v-1h-5.18v-.92l3.0195-4.62q3.0615-4.64,3.1-4.66a1.0649,1.0649,0,0,1,.42-.04h.3613l.1192.12v9.2h1.84v.92h-1.84v1.02c0,.5469.0039.8667.01.96a.3644.3644,0,0,0,.1114.24,2.5238,2.5238,0,0,0,1.1386.16h.58v.92Zm-3.3789-4.22v-6.68l-4.3808,6.66,2.18.02Z"
         id="path172" />
      <path
         class="cls-3"
         d="M502.9207,202.5035a1.104,1.104,0,0,1,.8106.33,1.1317,1.1317,0,0,1,.33.83,1.0305,1.0305,0,0,1-.34.78,1.0874,1.0874,0,0,1-.7617.32h-.1387l.0586.1a2.62,2.62,0,0,0,.92,1.06,2.5454,2.5454,0,0,0,1.461.42,2.1212,2.1212,0,0,0,2.039-1.2,6.0835,6.0835,0,0,0,.3809-2.56,4.9845,4.9845,0,0,0-.5391-2.78,1.5768,1.5768,0,0,0-1.2812-.66,2.5762,2.5762,0,0,0-2.3594,1.36.3822.3822,0,0,1-.15.17.8826.8826,0,0,1-.289.03c-.2286,0-.3536-.04-.3809-.12q-.0409-.0792-.0391-3.5,0-.6-.0117-1.42c-.0058-.5464-.01-.8931-.01-1.04,0-.7466.0411-1.12.1211-1.12a.1112.1112,0,0,1,.08-.04l.3594.12a7.0972,7.0972,0,0,0,2.66.52,6.8035,6.8035,0,0,0,2.7207-.56.6174.6174,0,0,1,.26-.0795c.1055,0,.16.12.16.36v.26a5.1161,5.1161,0,0,1-4.1016,1.94,4.8062,4.8062,0,0,1-1.1191-.12l-.1992-.04v3.44a3.43,3.43,0,0,1,3.16-.82,3.7855,3.7855,0,0,1,2.19,1.52,4.5984,4.5984,0,0,1,.85,2.76,4.3772,4.3772,0,0,1-1.27,3.14,4.175,4.175,0,0,1-3.1308,1.32,3.3272,3.3272,0,0,1-2.1387-.7,2.2083,2.2083,0,0,1-.66-.66,3.5486,3.5486,0,0,1-.7618-1.78c0-.04-.0019-.103-.01-.19-.0059-.0864-.01-.15-.01-.19a1.1915,1.1915,0,0,1,.32-.88A1.1088,1.1088,0,0,1,502.9207,202.5035Z"
         id="path174" />
      <path
         class="cls-3"
         d="M513.741,193.8433a1.7772,1.7772,0,0,1,.68-.97,2.0075,2.0075,0,0,1,1.24-.39,2.0305,2.0305,0,0,1,2.039,1.1,1.4705,1.4705,0,0,1,.1211.62,1.5211,1.5211,0,0,1-.1211.64,1.9439,1.9439,0,0,1-1.9394,1.1,2.2356,2.2356,0,0,1-1.32-.38,1.7073,1.7073,0,0,1-.6993-.98,1.9226,1.9226,0,0,1-.0195-.36A2.1038,2.1038,0,0,1,513.741,193.8433Zm2.0391,1.36a1.8243,1.8243,0,0,0,1-.19.939.939,0,0,0,.26-.79q0-.82-.6192-.98a4.5942,4.5942,0,0,0-.58-.02c-.0665,0-.1426-.0029-.2305-.01-.086-.0069-.1367-.01-.15-.01a.9626.9626,0,0,0-.7188.23,1.0969,1.0969,0,0,0-.2207.77,1.05,1.05,0,0,0,.2207.78A1.6562,1.6562,0,0,0,515.78,195.2032Z"
         id="path176" />
    </g>
    <g
       id="g188">
      <path
         class="cls-3"
         d="M487.6248,497.1451a1.0883,1.0883,0,0,1-.85-.3408,1.2533,1.2533,0,0,1-.31-.88,2.4146,2.4146,0,0,1,.9-1.91,3.8207,3.8207,0,0,1,2.08-.9091h.3q.7,0,.88.0195a4.8877,4.8877,0,0,1,1.34.42,2.981,2.981,0,0,1,1.66,1.88,1.9474,1.9474,0,0,1,.06.54,3.3287,3.3287,0,0,1-.7295,2.11,4.0426,4.0426,0,0,1-1.83,1.33c-.0674.0263-.0674.0468,0,.06a1.2905,1.2905,0,0,0,.2.0606,4.259,4.259,0,0,1,2.06,1.27,3.0605,3.0605,0,0,1,.84,2.11,3.4961,3.4961,0,0,1-.38,1.58,3.9582,3.9582,0,0,1-1.5694,1.69,4.5462,4.5462,0,0,1-2.4306.67,4.784,4.784,0,0,1-2.34-.56,2.884,2.884,0,0,1-1.38-1.5,2.25,2.25,0,0,1-.2-.98,1.193,1.193,0,0,1,.37-.9092,1.329,1.329,0,0,1,1.81.01,1.22,1.22,0,0,1,.36.8994,1.282,1.282,0,0,1-.26.8008,1.1819,1.1819,0,0,1-.7.4394l-.14.04a3.7625,3.7625,0,0,0,2.48.9,1.7847,1.7847,0,0,0,1.66-1.06,4.5936,4.5936,0,0,0,.34-2.0195v-.4a2.5621,2.5621,0,0,0-1.2793-2.54,4.2153,4.2153,0,0,0-1.2207-.14l-.84-.02-.06-.04a.73.73,0,0,1-.04-.3193.4718.4718,0,0,1,.06-.3.1646.1646,0,0,1,.1006-.0606,7.07,7.07,0,0,0,1.1591-.1,1.735,1.735,0,0,0,1.3409-.99,4.43,4.43,0,0,0,.46-2.09,1.9008,1.9008,0,0,0-.7-1.74,1.66,1.66,0,0,0-.94-.28,2.9642,2.9642,0,0,0-1.76.54.87.87,0,0,0-.18.13,1.2462,1.2462,0,0,0-.16.17l-.0606.08c.04.0136.087.0273.1407.04a.9567.9567,0,0,1,.67.38,1.2237,1.2237,0,0,1,.2695.78,1.1,1.1,0,0,1-.33.81A1.15,1.15,0,0,1,487.6248,497.1451Z"
         id="path180" />
      <path
         class="cls-3"
         d="M503.4051,506.4049q-.3413-.06-3.1807-.0606-2.7993,0-3.14.0606h-.24v-.92h.52a11.253,11.253,0,0,0,1.5-.06,1.2707,1.2707,0,0,0,.48-.24v-10.34a.49.49,0,0,0-.16.0606,5.901,5.901,0,0,1-2.06.38h-.38v-.92h.38a5.5785,5.5785,0,0,0,2.8-.76,2.8149,2.8149,0,0,0,.62-.46c.0263-.04.1064-.0606.24-.0606a.5054.5054,0,0,1,.34.12v5.9795l.02,6a1.9367,1.9367,0,0,0,1.3007.3007h1.18v.92Z"
         id="path182" />
      <path
         class="cls-3"
         d="M507.2244,502.1246a1.1023,1.1023,0,0,1,.8106.33,1.1268,1.1268,0,0,1,.33.83,1.0321,1.0321,0,0,1-.34.78,1.0866,1.0866,0,0,1-.7607.3194h-.14l.06.1a2.6032,2.6032,0,0,0,.92,1.06,2.5417,2.5417,0,0,0,1.461.42,2.1223,2.1223,0,0,0,2.039-1.2,6.0811,6.0811,0,0,0,.3809-2.56,4.9859,4.9859,0,0,0-.54-2.78,1.5775,1.5775,0,0,0-1.28-.66,2.5774,2.5774,0,0,0-2.36,1.36.3821.3821,0,0,1-.1494.17.8715.8715,0,0,1-.29.03c-.2276,0-.3536-.04-.38-.12q-.0411-.0792-.04-3.5,0-.6006-.0107-1.42t-.01-1.04q0-1.1207.12-1.12a.1146.1146,0,0,1,.08-.04l.36.12a7.1,7.1,0,0,0,2.6592.5195,6.8116,6.8116,0,0,0,2.7207-.56.6276.6276,0,0,1,.26-.08c.1065,0,.16.12.16.36v.26a5.117,5.117,0,0,1-4.1006,1.94,4.7941,4.7941,0,0,1-1.1191-.12l-.2-.04v3.44a3.4259,3.4259,0,0,1,3.16-.8193,3.787,3.787,0,0,1,2.19,1.5195,4.6012,4.6012,0,0,1,.8506,2.76,4.3747,4.3747,0,0,1-1.27,3.1406,4.1713,4.1713,0,0,1-3.13,1.3193,3.3327,3.3327,0,0,1-2.14-.6992,2.226,2.226,0,0,1-.66-.66,3.5479,3.5479,0,0,1-.7608-1.78c0-.04-.0029-.1035-.01-.19s-.01-.1494-.01-.1894a1.1865,1.1865,0,0,1,.32-.88A1.1065,1.1065,0,0,1,507.2244,502.1246Z"
         id="path184" />
      <path
         class="cls-3"
         d="M518.0448,493.4644a1.7839,1.7839,0,0,1,.68-.97,2.011,2.011,0,0,1,1.24-.39,2.0321,2.0321,0,0,1,2.04,1.1,1.4689,1.4689,0,0,1,.12.62,1.5193,1.5193,0,0,1-.12.64,1.9461,1.9461,0,0,1-1.9394,1.1006,2.2309,2.2309,0,0,1-1.32-.3808,1.7075,1.7075,0,0,1-.7-.9795,1.9132,1.9132,0,0,1-.02-.36A2.0971,2.0971,0,0,1,518.0448,493.4644Zm2.04,1.36a1.8255,1.8255,0,0,0,1-.19.9408.9408,0,0,0,.26-.79q0-.8188-.62-.9795a4.4488,4.4488,0,0,0-.58-.0205c-.0664,0-.1426-.0029-.23-.01s-.1367-.01-.15-.01a.9652.9652,0,0,0-.72.23,1.0972,1.0972,0,0,0-.22.77,1.05,1.05,0,0,0,.22.78A1.66,1.66,0,0,0,520.0848,494.8248Z"
         id="path186" />
    </g>
    <g
       id="g198">
      <path
         class="cls-3"
         d="M185.3416,497.8238a1.117,1.117,0,0,1-.88-.3594,1.2755,1.2755,0,0,1-.32-.88,3.2824,3.2824,0,0,1,1.09-2.4707,3.667,3.667,0,0,1,2.61-1.0293,4.3339,4.3339,0,0,1,2.85.93,3.9085,3.9085,0,0,1,1.3907,2.43,6.1109,6.1109,0,0,1,.04.66,3.7879,3.7879,0,0,1-.7,2.18,13.2818,13.2818,0,0,1-2.2607,2.3007q-.7192.62-2,1.84l-1.18,1.12,1.52.0195a24.111,24.111,0,0,0,3.34-.1c.0528-.0136.12-.1533.2-.42a12.72,12.72,0,0,0,.2793-1.36v-.06h.8008v.06l-.5605,3.66v.06h-7.42v-.38a1.3256,1.3256,0,0,1,.04-.46q.019-.019,1.68-1.9,2.18-2.4186,2.8-3.1993a5.8016,5.8016,0,0,0,1.3408-3.34,3.5008,3.5008,0,0,0-.69-2.2109,2.3042,2.3042,0,0,0-1.93-.89,2.1933,2.1933,0,0,0-1.88,1.04q-.0411.0807-.12.22a.4681.4681,0,0,0-.0606.12c0,.0137.0332.02.1006.02a1.02,1.02,0,0,1,.81.3594,1.2482,1.2482,0,0,1,.31.8408,1.1944,1.1944,0,0,1-.33.85A1.1417,1.1417,0,0,1,185.3416,497.8238Z"
         id="path190" />
      <path
         class="cls-3"
         d="M195.3416,497.8238a1.117,1.117,0,0,1-.88-.3594,1.2755,1.2755,0,0,1-.32-.88,3.2824,3.2824,0,0,1,1.09-2.4707,3.667,3.667,0,0,1,2.61-1.0293,4.3339,4.3339,0,0,1,2.85.93,3.9085,3.9085,0,0,1,1.3907,2.43,6.1109,6.1109,0,0,1,.04.66,3.7879,3.7879,0,0,1-.7,2.18,13.2818,13.2818,0,0,1-2.2607,2.3007q-.7192.62-2,1.84l-1.18,1.12,1.52.0195a24.111,24.111,0,0,0,3.34-.1c.0528-.0136.12-.1533.2-.42a12.72,12.72,0,0,0,.2793-1.36v-.06h.8008v.06l-.5605,3.66v.06h-7.42v-.38a1.3256,1.3256,0,0,1,.04-.46q.019-.019,1.68-1.9,2.18-2.4186,2.8-3.1993a5.8016,5.8016,0,0,0,1.3408-3.34,3.5008,3.5008,0,0,0-.69-2.2109,2.3042,2.3042,0,0,0-1.93-.89,2.1933,2.1933,0,0,0-1.88,1.04q-.0411.0807-.12.22a.4681.4681,0,0,0-.0606.12c0,.0137.0332.02.1006.02a1.02,1.02,0,0,1,.81.3594,1.2482,1.2482,0,0,1,.31.8408,1.1944,1.1944,0,0,1-.33.85A1.1417,1.1417,0,0,1,195.3416,497.8238Z"
         id="path192" />
      <path
         class="cls-3"
         d="M205.2811,502.1246a1.1018,1.1018,0,0,1,.81.3291,1.1282,1.1282,0,0,1,.33.83,1.0292,1.0292,0,0,1-.34.78,1.0838,1.0838,0,0,1-.7608.32h-.14l.06.1a2.6065,2.6065,0,0,0,.92,1.0605,2.5489,2.5489,0,0,0,1.4609.42,2.1239,2.1239,0,0,0,2.0391-1.2,6.0866,6.0866,0,0,0,.3808-2.56,4.98,4.98,0,0,0-.54-2.7793,1.5753,1.5753,0,0,0-1.28-.66,2.5757,2.5757,0,0,0-2.36,1.36.3943.3943,0,0,1-.1495.17.9085.9085,0,0,1-.29.0293c-.2275,0-.3535-.04-.38-.12q-.0409-.0791-.04-3.5,0-.5991-.0108-1.42-.01-.8188-.01-1.04,0-1.1191.12-1.1191a.111.111,0,0,1,.08-.04l.36.1192a7.0815,7.0815,0,0,0,2.6592.52,6.7967,6.7967,0,0,0,2.7207-.56.6231.6231,0,0,1,.26-.0792c.1064,0,.16.1192.16.3594v.26a5.1139,5.1139,0,0,1-4.1006,1.94,4.7947,4.7947,0,0,1-1.1191-.12l-.2-.04v3.44a3.6983,3.6983,0,0,1,2.34-.92,3.7378,3.7378,0,0,1,.82.1,3.7842,3.7842,0,0,1,2.1894,1.52,4.597,4.597,0,0,1,.8506,2.76,4.3737,4.3737,0,0,1-1.27,3.14,4.1721,4.1721,0,0,1-3.13,1.32,3.3274,3.3274,0,0,1-2.14-.7,2.2142,2.2142,0,0,1-.66-.66,3.5447,3.5447,0,0,1-.7607-1.78c0-.04-.003-.1025-.01-.19s-.01-.15-.01-.19a1.1886,1.1886,0,0,1,.32-.88A1.11,1.11,0,0,1,205.2811,502.1246Z"
         id="path194" />
      <path
         class="cls-3"
         d="M216.1014,493.4644a1.7894,1.7894,0,0,1,.68-.9707,2.0113,2.0113,0,0,1,1.24-.39,2.0337,2.0337,0,0,1,2.04,1.1,1.4736,1.4736,0,0,1,.12.62,1.5257,1.5257,0,0,1-.12.6406,1.9454,1.9454,0,0,1-1.9395,1.1,2.2372,2.2372,0,0,1-1.32-.38,1.7094,1.7094,0,0,1-.7-.98,1.91,1.91,0,0,1-.02-.3594A2.0864,2.0864,0,0,1,216.1014,493.4644Zm2.04,1.3594a1.8273,1.8273,0,0,0,1-.1894.9431.9431,0,0,0,.26-.79q0-.82-.62-.98a4.7517,4.7517,0,0,0-.58-.02c-.0664,0-.1426-.0029-.23-.01s-.1367-.0107-.15-.0107a.9618.9618,0,0,0-.72.2305,1.096,1.096,0,0,0-.22.7695,1.0486,1.0486,0,0,0,.22.78A1.6592,1.6592,0,0,0,218.1414,494.8238Z"
         id="path196" />
    </g>
    <g
       id="g208">
      <path
         class="cls-3"
         d="M193.3934,206.7833q-.3414-.06-3.1807-.06-2.7993,0-3.14.06h-.24v-.92h.52a11.2768,11.2768,0,0,0,1.5-.06,1.2858,1.2858,0,0,0,.48-.24v-10.34a.4854.4854,0,0,0-.16.06,5.8919,5.8919,0,0,1-2.06.38h-.38v-.92h.38a5.5788,5.5788,0,0,0,2.8-.76,2.7777,2.7777,0,0,0,.62-.46q.04-.06.24-.06a.5075.5075,0,0,1,.34.12v5.98l.0195,6a1.9372,1.9372,0,0,0,1.3008.3h1.18v.92Z"
         id="path200" />
      <path
         class="cls-3"
         d="M197.6131,197.5235a1.09,1.09,0,0,1-.85-.34,1.254,1.254,0,0,1-.31-.88,2.4141,2.4141,0,0,1,.9-1.91,3.8227,3.8227,0,0,1,2.08-.91h.3q.7,0,.88.02a4.8548,4.8548,0,0,1,1.34.42,2.9794,2.9794,0,0,1,1.66,1.88,1.945,1.945,0,0,1,.06.54,3.3282,3.3282,0,0,1-.73,2.11,4.0426,4.0426,0,0,1-1.83,1.33q-.1011.04,0,.06a1.3121,1.3121,0,0,0,.2.06,4.2606,4.2606,0,0,1,2.06,1.27,3.0593,3.0593,0,0,1,.84,2.11,3.4953,3.4953,0,0,1-.38,1.58,3.9615,3.9615,0,0,1-1.5693,1.69,4.5507,4.5507,0,0,1-2.4307.67,4.7852,4.7852,0,0,1-2.34-.56,2.8843,2.8843,0,0,1-1.38-1.5,2.2485,2.2485,0,0,1-.2-.98,1.1944,1.1944,0,0,1,.37-.91,1.3305,1.3305,0,0,1,1.81.01,1.2209,1.2209,0,0,1,.36.9,1.2822,1.2822,0,0,1-.26.8,1.185,1.185,0,0,1-.7.44l-.14.04a3.7627,3.7627,0,0,0,2.48.9,1.7845,1.7845,0,0,0,1.66-1.06,4.596,4.596,0,0,0,.34-2.02v-.4a2.5619,2.5619,0,0,0-1.2793-2.54,4.2092,4.2092,0,0,0-1.2207-.14l-.84-.02-.06-.04a.7316.7316,0,0,1-.04-.32.473.473,0,0,1,.06-.3.1631.1631,0,0,1,.1005-.06,7.0173,7.0173,0,0,0,1.1592-.1,1.7352,1.7352,0,0,0,1.3408-.99,4.4284,4.4284,0,0,0,.46-2.09,1.9019,1.9019,0,0,0-.7-1.74,1.66,1.66,0,0,0-.94-.28,2.9606,2.9606,0,0,0-1.76.54.8371.8371,0,0,0-.18.13,1.2119,1.2119,0,0,0-.16.17l-.0606.08c.04.0137.0869.0268.1406.04a.9552.9552,0,0,1,.67.38,1.2219,1.2219,0,0,1,.2695.78,1.0993,1.0993,0,0,1-.33.81A1.15,1.15,0,0,1,197.6131,197.5235Z"
         id="path202" />
      <path
         class="cls-3"
         d="M207.2127,202.5035a1.1026,1.1026,0,0,1,.8106.33,1.1277,1.1277,0,0,1,.33.83,1.03,1.03,0,0,1-.34.78,1.0852,1.0852,0,0,1-.7607.32h-.14l.06.1a2.6049,2.6049,0,0,0,.92,1.06,2.5453,2.5453,0,0,0,1.4609.42,2.1231,2.1231,0,0,0,2.0391-1.2,6.0835,6.0835,0,0,0,.3809-2.56,4.9827,4.9827,0,0,0-.54-2.78,1.5764,1.5764,0,0,0-1.28-.66,2.5766,2.5766,0,0,0-2.36,1.36.3875.3875,0,0,1-.1494.17.89.89,0,0,1-.29.03c-.2275,0-.3535-.04-.38-.12q-.0411-.0792-.04-3.5,0-.6-.0107-1.42t-.01-1.04q0-1.12.12-1.12a.1129.1129,0,0,1,.08-.04l.36.12a7.0882,7.0882,0,0,0,2.6591.52,6.8028,6.8028,0,0,0,2.7207-.56.6259.6259,0,0,1,.26-.0795c.1065,0,.16.12.16.36v.26a5.1155,5.1155,0,0,1-4.1006,1.94,4.7949,4.7949,0,0,1-1.1192-.12l-.2-.04v3.44a3.43,3.43,0,0,1,3.16-.82,3.7859,3.7859,0,0,1,2.19,1.52,4.599,4.599,0,0,1,.8505,2.76,4.374,4.374,0,0,1-1.2705,3.14,4.1713,4.1713,0,0,1-3.13,1.32,3.33,3.33,0,0,1-2.14-.7,2.2212,2.2212,0,0,1-.66-.66,3.5475,3.5475,0,0,1-.7607-1.78c0-.04-.0029-.103-.01-.19s-.01-.15-.01-.19a1.1875,1.1875,0,0,1,.32-.88A1.1081,1.1081,0,0,1,207.2127,202.5035Z"
         id="path204" />
      <path
         class="cls-3"
         d="M218.033,193.8433a1.787,1.787,0,0,1,.68-.97,2.0116,2.0116,0,0,1,1.24-.39,2.0329,2.0329,0,0,1,2.04,1.1,1.4708,1.4708,0,0,1,.12.62,1.5217,1.5217,0,0,1-.12.64,1.9458,1.9458,0,0,1-1.9395,1.1,2.2339,2.2339,0,0,1-1.32-.38,1.7092,1.7092,0,0,1-.7-.98,1.9226,1.9226,0,0,1-.0195-.36A2.1038,2.1038,0,0,1,218.033,193.8433Zm2.04,1.36a1.8269,1.8269,0,0,0,1-.19.9421.9421,0,0,0,.26-.79q0-.82-.62-.98a4.5951,4.5951,0,0,0-.58-.02c-.0664,0-.1425-.0029-.2294-.01s-.1368-.01-.15-.01a.9636.9636,0,0,0-.72.23,1.0966,1.0966,0,0,0-.22.77,1.0494,1.0494,0,0,0,.22.78A1.66,1.66,0,0,0,220.0731,195.2032Z"
         id="path206" />
    </g>
    <text
       xml:space="preserve"
       style="font-style:normal;font-variant:normal;font-weight:normal;font-stretch:normal;font-size:18.66666603px;line-height:1.25;font-family:Bahnschrift;-inkscape-font-specification:Bahnschrift;letter-spacing:0px;word-spacing:0px;fill:#4d4d4d;fill-opacity:1;stroke:none;"
       x="545.47034"
       y="152.68645"
       id="text4082"><tspan
         sodipodi:role="line"
         id="tspan4080"
         x="545.47034"
         y="152.68645">NE</tspan></text>
    <text
       xml:space="preserve"
       style="font-style:normal;font-variant:normal;font-weight:normal;font-stretch:normal;font-size:18.66666603px;line-height:1.25;font-family:Bahnschrift;-inkscape-font-specification:Bahnschrift;letter-spacing:0px;word-spacing:0px;fill:#4d4d4d;fill-opacity:1;stroke:none;"
       x="124.21609"
       y="562.23303"
       id="text4094"><tspan
         sodipodi:role="line"
         id="tspan4092"
         x="124.21609"
         y="562.23303">SW</tspan></text>
    <text
       xml:space="preserve"
       style="font-style:normal;font-variant:normal;font-weight:normal;font-stretch:normal;font-size:18.66666603px;line-height:1.25;font-family:Bahnschrift;-inkscape-font-specification:Bahnschrift;letter-spacing:0px;word-spacing:0px;fill:#4d4d4d;fill-opacity:1;stroke:none;"
       x="548.72882"
       y="563.55933"
       id="text4102"><tspan
         sodipodi:role="line"
         id="tspan4100"
         x="548.72882"
         y="563.55933">SE</tspan></text>
  </g>
  <text
     xml:space="preserve"
     style="font-style:normal;font-variant:normal;font-weight:normal;font-stretch:normal;font-size:18.66666603px;line-height:1.25;font-family:Bahnschrift;-inkscape-font-specification:Bahnschrift;letter-spacing:0px;word-spacing:0px;fill:#4d4d4d;fill-opacity:1;stroke:none;"
     x="343.03391"
     y="32.627117"
     id="text4074"><tspan
       sodipodi:role="line"
       id="tspan4072"
       x="343.03391"
       y="32.627117"
       style="-inkscape-font-specification:Arial;font-family:Arial;font-weight:normal;font-style:normal;font-stretch:normal;font-variant:normal;fill:#4d4d4d;">N</tspan></text>
  <text
     xml:space="preserve"
     style="font-style:normal;font-variant:normal;font-weight:normal;font-stretch:normal;font-size:18.66666603px;line-height:1.25;font-family:Bahnschrift;-inkscape-font-specification:Bahnschrift;letter-spacing:0px;word-spacing:0px;fill:#333333;fill-opacity:1;stroke:none;"
     x="123.09322"
     y="150.52966"
     id="text4086"><tspan
       sodipodi:role="line"
       id="tspan4084"
       x="123.09322"
       y="150.52966">NW</tspan></text>
  <text
     xml:space="preserve"
     style="font-style:normal;font-variant:normal;font-weight:normal;font-stretch:normal;font-size:18.66666603px;line-height:1.25;font-family:Bahnschrift;-inkscape-font-specification:Bahnschrift;letter-spacing:0px;word-spacing:0px;fill:#4d4d4d;fill-opacity:1;stroke:none;"
     x="14.088983"
     y="356"
     id="text4090"><tspan
       sodipodi:role="line"
       id="tspan4088"
       x="14.088983"
       y="356">W</tspan></text>
</svg>
